<svg width="400" height="400" viewBox="0 0 400 400" fill="none" xmlns="http://www.w3.org/2000/svg">
<g clip-path="url(#clip0_1247_674)">
<rect width="400" height="400" fill="white"/>
<g clip-path="url(#clip1_1247_674)">
<rect width="400" height="400" fill="white"/>
<path d="M157.1 279.457C153.529 282.372 154.607 286.45 151.818 291.077C149.092 295.599 145.712 293.338 142.31 298.472C135.824 308.276 134.239 318.27 132.802 324.883C130.711 334.518 129.802 330.82 122.238 354.463C113.343 382.247 115.35 379.775 109.561 396.72C101.553 420.215 96.7147 427.821 94.7709 438.977C93.9257 443.773 93.799 448.316 90.5452 453.767C88.3267 457.507 86.2138 459.007 86.3195 462.218C86.4251 465.831 89.2775 469.909 92.658 470.67C94.8765 471.177 95.9541 469.909 98.9966 470.67C101.278 471.24 101.088 472.064 103.222 472.783C108.357 474.494 113.427 471.895 113.787 472.783C114.082 473.522 110.491 475.762 110.617 475.952C110.723 476.121 113.491 473.628 116.449 474.283C117.125 474.431 117.188 474.663 118.012 474.896C118.435 475.022 122.069 475.741 124.351 474.896C127.562 473.712 127.076 469.867 129.633 467.501C133.373 464.014 140.725 466.486 144.423 467.501C145.395 467.775 156.339 467.691 178.229 467.501C208.865 467.247 213.619 466.191 216.26 465.388C220.042 464.226 222.303 463.909 226.824 463.275C233.459 462.345 234.684 462.916 235.276 463.275C239.163 465.62 236.522 471.304 240.558 474.896C244.002 477.959 250.235 478.17 254.291 475.952C258.876 473.438 260.186 468.092 261.686 468.557C262.996 468.958 261.644 472.677 263.799 474.896C266.609 477.79 273.835 475.086 274.363 474.896C277.321 473.797 278.399 472.466 280.702 472.783C282.899 473.078 282.899 474.431 284.928 474.896C288.456 475.72 289.935 472.043 295.492 470.67C300.605 469.402 303.056 471.642 305 469.613C306.289 468.261 306.204 466.212 306.056 462.218C305.951 459.324 305.507 457.274 305 454.823C303.077 445.527 299.95 432.512 297.605 424.187C295.323 416.116 293.611 410.137 293.379 409.397C289.576 397.016 288.435 389.79 284.928 373.479C282.075 360.231 279.033 346.117 274.363 329.109C263.271 288.753 260.292 295.071 259.573 282.626C259.362 278.823 259.151 269.843 253.235 265.723C250.087 263.547 246.537 263.568 244.783 263.61C213.133 264.307 177.109 276.351 163.439 277.344C162.171 277.428 159.424 277.555 157.1 279.457Z" fill="#FBDBCD"/>
<path d="M153.931 278.399L100.053 395.663C97.2433 402.699 94.412 409.756 91.6019 416.791C91.3061 417.552 86.848 429.236 93.7148 437.92C98.2574 443.667 107.723 448.083 112.73 444.258C116.048 441.723 116.069 436.568 116.005 434.814C115.181 436.716 112.73 443.012 114.843 450.597C116.386 456.111 119.576 459.598 121.182 461.161C128.218 463.274 135.275 465.387 142.31 467.5C174.003 466.084 205.696 464.69 237.389 463.274C237.748 457.844 238.086 452.414 238.445 446.984C240.917 447.491 243.368 447.977 245.84 448.484C249.369 449.181 252.876 449.9 256.404 450.597C266.271 451.294 276.117 452.013 285.984 452.71C288.562 453.428 294.182 454.611 300.774 452.71C304.556 451.611 307.388 449.857 309.226 448.484C311.339 445.674 313.451 442.843 315.564 440.033C315.945 436.842 316.325 431.602 315.564 425.243C314.254 414.192 310.303 406.354 309.226 404.114C303.162 391.543 282.562 337.623 253.235 259.384C242.312 263.969 231.409 268.532 220.486 273.117C215.901 279.815 211.337 286.492 206.752 293.189C204.069 295.45 200.224 298.239 195.132 300.584C189.343 303.247 184.082 304.324 180.342 304.81C178.673 304.81 175.398 304.578 171.89 302.697C167.474 300.331 165.298 296.781 164.495 295.302C164.136 289.323 163.798 283.322 163.439 277.343L153.931 278.399Z" fill="#FF5B7C"/>
<path d="M132.739 379.711C128.555 392.705 124.351 405.72 120.357 418.778C114.019 439.61 112.455 450.576 116.618 457.084C121.815 465.218 133.394 466.697 170.833 466.444C188.666 466.338 211.611 465.831 238.445 464.331" stroke="black" stroke-width="2" stroke-linecap="round" stroke-linejoin="round"/>
<path d="M153.93 278.4C148.88 288.584 103.475 380.62 93.2913 415.102C91.1784 422.265 89.1079 431.963 94.2421 438.555C99.3129 445.041 109.032 445.464 113.765 445.316" stroke="black" stroke-width="2" stroke-linecap="round" stroke-linejoin="round"/>
<path d="M227.881 326.53C224.268 355.476 223.507 379.774 223.655 397.881C223.908 429.975 229.592 437.878 235.022 442.779C244.614 451.4 257.989 451.822 278.589 452.435C296.168 452.984 304.957 453.238 310.282 448.231C322.008 437.18 311.634 409.016 301.83 383.176C288.139 347.152 271.955 305.55 253.235 259.384" stroke="black" stroke-width="2" stroke-linecap="round" stroke-linejoin="round"/>
<path d="M162.382 280.511C162.319 281.483 161.431 296.801 171.383 302.717C176.412 305.718 181.842 304.894 185.095 304.344C204.386 301.154 215.858 281.462 218.774 276.138" stroke="black" stroke-width="2" stroke-linecap="round" stroke-linejoin="round"/>
<path d="M119.165 83.734C108.411 94.2315 102.463 105.408 100.506 109.349C96.9352 116.476 91.6843 127.25 91.1719 141.948C90.7518 153.938 93.6671 163.178 95.8346 169.886C101.27 186.604 106.404 187.326 109.831 202.485C112.074 212.379 112.142 222.063 112.167 225.769C112.192 234.455 111.276 239.503 112.167 249.053C112.822 255.987 113.125 259.458 114.502 263.022C119.098 274.945 130.902 280.646 137.833 283.975C152.065 290.842 164.986 290.959 172.825 290.959C187.334 290.959 197.693 287.79 210.152 283.975C214.42 282.675 233.76 276.596 256.813 263.022C272.255 253.916 282.588 245.448 289.477 239.738C302.634 228.838 307.675 222.583 310.472 218.785C315.001 212.639 319.941 205.797 322.133 195.501C323.326 190.009 324.956 182.857 322.133 174.547C320.478 169.684 318.353 163.421 312.799 160.579C310.237 159.279 306.994 158.717 305.801 155.925C304.961 153.972 305.801 152.01 305.801 151.272C305.801 151.272 305.826 141.328 303.466 130.319C299.5 111.881 289.469 97.7195 289.469 97.7195C278.572 82.3506 264.903 75.1314 254.477 69.7821C246.084 65.4305 220.981 52.971 186.821 55.7882C176.975 56.6015 144.201 59.3013 119.165 83.7256V83.734Z" fill="#FBDBCD"/>
<path d="M306.969 157.074C307.321 148.672 306.8 135.844 301.575 121.657C284.806 76.0703 235.935 61.1206 229.962 59.5191C184.401 47.2021 133.917 61.7075 105.378 100.36C89.3483 122.06 89.0039 147.482 96.019 172.745L100.052 185.967C109.478 186.806 119.232 182.823 125.247 175.629C131.288 168.435 133.439 158.256 130.801 149.293C139.504 158.608 153.736 162.473 166.078 158.885C178.394 155.296 188.215 144.447 190.408 131.97C192.551 144.614 201.49 155.95 213.386 161.098C225.307 166.247 239.817 165.056 250.688 158.046C256.216 170.925 261.727 183.795 267.255 196.674C266.953 195.576 262.702 179.167 274.254 166.406C282.353 157.443 295.039 153.829 306.918 157.091L306.969 157.065V157.074Z" fill="#EC5050"/>
<path d="M282.873 273.628C286.259 281.266 297.525 283.915 303.961 278.608C310.396 273.301 309.934 261.755 303.079 257.001C310.312 262.845 322.603 260.497 327.157 252.415C330.257 246.923 326.384 235.578 318.621 229.483C316.664 227.948 314.168 226.875 314.168 226.875C313.379 226.506 309.615 224.754 306.985 224.62C302.037 224.343 299.634 229.676 288.326 240.919C284.73 244.483 282.865 246.16 281.21 247.535C279.857 248.675 278.95 249.513 277.597 250.587C273.489 253.848 272.582 254.058 271.994 254.896C270.591 256.85 271.574 261.604 281.328 273.519" fill="#EC5050"/>
<path d="M295.77 282.935C294.501 282.935 293.207 282.784 291.913 282.482C287.141 281.358 283.235 278.281 281.445 274.257C281.101 273.477 281.445 272.555 282.235 272.211C283.016 271.867 283.94 272.211 284.285 272.999C285.68 276.143 288.796 278.558 292.619 279.463C296.442 280.369 300.306 279.598 302.961 277.409C305.616 275.221 307.103 271.565 306.943 267.641C306.792 264.044 305.28 260.799 302.844 258.779C302.583 258.594 302.331 258.401 302.087 258.208C301.44 257.68 301.323 256.741 301.819 256.07C302.323 255.4 303.264 255.249 303.944 255.727C304.213 255.911 304.465 256.104 304.717 256.305C307.741 258.418 311.732 259.181 315.815 258.401C320.201 257.563 323.838 255.106 325.779 251.652C327.728 248.189 327.947 243.804 326.384 239.611C324.83 235.436 321.797 232.275 318.067 230.933C317.26 230.64 316.84 229.751 317.134 228.946C317.428 228.141 318.319 227.722 319.125 228.016C323.712 229.667 327.426 233.499 329.299 238.53C331.181 243.577 330.887 248.91 328.493 253.169C326.098 257.42 321.696 260.439 316.403 261.445C313.715 261.956 311.043 261.906 308.573 261.328C309.439 263.206 309.951 265.302 310.043 267.507C310.253 272.395 308.338 276.99 304.935 279.799C302.457 281.845 299.189 282.926 295.753 282.926L295.77 282.935Z" fill="black"/>
<path d="M175.109 291.595C160.079 291.595 138.009 288.887 122.173 275.262C114.805 268.923 111.469 260.161 111.696 247.676C111.755 244.675 111.864 241.757 111.965 238.931C112.469 225.256 112.914 213.442 107.369 200.798C107.025 200.01 107.386 199.096 108.167 198.752C108.957 198.409 109.873 198.769 110.217 199.549C116.04 212.839 115.594 224.979 115.073 239.032C114.973 241.841 114.863 244.75 114.805 247.718C114.595 259.365 117.493 267.129 124.206 272.897C129.583 277.526 150.124 292.274 188.636 287.713C204.044 285.885 220.368 280.905 237.145 272.931C237.918 272.562 238.851 272.889 239.22 273.66C239.59 274.432 239.262 275.362 238.489 275.731C221.409 283.856 204.758 288.929 189.014 290.798C186.115 291.142 181.192 291.587 175.118 291.587L175.109 291.595Z" fill="black"/>
<path d="M295.123 210.174C294.518 210.174 293.938 209.813 293.686 209.226C289.175 198.477 287.074 186.664 287.62 175.051C287.662 174.221 288.343 173.575 289.175 173.575C289.2 173.575 289.225 173.575 289.25 173.575C290.107 173.617 290.771 174.338 290.729 175.193C290.208 186.353 292.224 197.706 296.559 208.027C296.896 208.816 296.517 209.73 295.728 210.057C295.534 210.14 295.324 210.174 295.131 210.174H295.123Z" fill="black"/>
<path d="M291.67 196.832C291.241 196.832 290.813 196.656 290.502 196.312C289.931 195.675 289.989 194.694 290.636 194.124L299.13 186.628C299.769 186.058 300.752 186.117 301.323 186.762C301.894 187.399 301.835 188.38 301.188 188.951L292.695 196.446C292.401 196.706 292.031 196.832 291.67 196.832V196.832Z" fill="black"/>
<path d="M103.404 187.611C102.505 187.611 101.606 187.569 100.707 187.485C99.8502 187.41 99.2201 186.655 99.3041 185.8C99.3798 184.945 100.144 184.316 100.993 184.4C109.932 185.213 119.031 181.432 124.752 174.523C130.465 167.631 132.481 157.988 130.011 149.369C129.809 148.682 130.112 147.944 130.742 147.592C131.372 147.239 132.153 147.365 132.649 147.893C140.966 156.882 154.451 160.604 166.204 157.142C177.966 153.687 187.275 143.265 189.375 131.216C189.501 130.47 190.148 129.934 190.904 129.934C191.66 129.934 192.307 130.487 192.433 131.233C194.458 143.416 203.094 154.492 214.436 159.447C225.77 164.403 239.783 163.246 250.125 156.496C250.848 156.026 251.805 156.228 252.276 156.949C252.746 157.67 252.545 158.626 251.822 159.095C240.623 166.398 225.45 167.656 213.184 162.29C202.775 157.737 194.466 148.422 190.845 137.647C186.955 148.246 177.974 156.924 167.078 160.126C155.795 163.447 143.058 160.722 133.96 153.369C134.892 161.585 132.456 170.113 127.155 176.51C121.366 183.503 112.452 187.62 103.412 187.62L103.404 187.611Z" fill="black"/>
<path d="M96.0196 174.312C95.339 174.312 94.7173 173.859 94.5241 173.171C86.3832 143.901 89.6177 119.091 104.127 99.4542C118.098 80.5386 137.699 66.6789 160.811 59.3675C183.259 52.2658 207.312 51.813 230.366 58.0427C253.318 64.2473 273.557 76.8745 287.36 93.585C302.164 111.503 309.33 133.387 308.103 156.872C308.061 157.727 307.314 158.389 306.473 158.339C305.616 158.297 304.961 157.568 305.003 156.713C306.196 134.015 299.265 112.87 284.966 95.5554C271.566 79.3312 251.89 67.0729 229.559 61.036C207.085 54.9656 183.637 55.41 161.76 62.3273C139.278 69.4374 120.215 82.9114 106.639 101.299C92.533 120.399 89.5505 143.641 97.5318 172.35C97.7586 173.171 97.2798 174.027 96.448 174.261C96.3052 174.303 96.1708 174.32 96.028 174.32L96.0196 174.312Z" fill="black"/>
<path d="M253.267 267.03C252.729 267.03 252.208 266.753 251.923 266.25C251.494 265.504 251.746 264.556 252.494 264.129C284.52 245.716 305.17 227.027 315.63 206.988C322.133 194.495 323.09 181.314 318.327 169.861C315.37 162.784 309.707 159.942 305.481 158.793C299.945 157.301 293.45 157.829 287.654 160.244C280.227 163.338 274.732 168.83 271.775 176.107C268.524 184.115 268.759 193.606 272.43 202.158C272.766 202.946 272.405 203.86 271.615 204.196C270.826 204.531 269.91 204.171 269.574 203.382C265.583 194.076 265.331 183.712 268.893 174.942C272.17 166.876 278.244 160.797 286.452 157.376C292.871 154.701 300.096 154.123 306.288 155.8C313.219 157.67 318.512 162.239 321.192 168.67C326.317 180.987 325.317 195.098 318.386 208.422C307.649 228.997 286.603 248.097 254.048 266.812C253.805 266.954 253.536 267.021 253.275 267.021L253.267 267.03Z" fill="black"/>
<path d="M137.656 221.945C135.556 221.945 133.481 220.955 131.96 219.236C130.431 217.492 129.725 215.287 130.02 213.174C130.314 211.061 131.599 209.141 133.548 207.892C135.497 206.643 137.791 206.265 139.841 206.877C140.664 207.121 141.135 207.984 140.891 208.806C140.647 209.628 139.782 210.097 138.959 209.854C137.782 209.502 136.421 209.745 135.237 210.5C134.052 211.263 133.279 212.394 133.103 213.61C132.935 214.826 133.372 216.134 134.296 217.199C135.228 218.255 136.472 218.884 137.682 218.851C138.723 218.851 139.664 218.44 140.152 217.786C140.588 217.19 140.622 216.293 140.227 215.857C140.076 215.69 139.757 215.589 139.471 215.623C139.303 215.639 139.101 215.698 139.017 215.824C138.547 216.545 137.589 216.746 136.867 216.285C136.144 215.815 135.942 214.86 136.405 214.138C137.001 213.216 138.026 212.629 139.211 212.529C140.471 212.42 141.714 212.889 142.521 213.77C143.915 215.304 143.974 217.819 142.647 219.622C141.563 221.089 139.706 222.003 137.64 221.953L137.656 221.945Z" fill="black"/>
<path d="M178.411 220.393C176.311 220.393 174.227 219.403 172.715 217.685C171.186 215.941 170.48 213.735 170.774 211.622C171.068 209.51 172.354 207.589 174.303 206.34C176.252 205.091 178.546 204.714 180.596 205.326C181.419 205.569 181.889 206.432 181.646 207.254C181.402 208.076 180.537 208.545 179.713 208.302C178.529 207.95 177.176 208.193 175.983 208.956C174.799 209.719 174.026 210.851 173.849 212.067C173.681 213.283 174.118 214.591 175.042 215.655C175.966 216.704 177.193 217.307 178.403 217.307H178.428C179.47 217.307 180.411 216.896 180.898 216.242C181.335 215.647 181.369 214.75 180.982 214.314C180.831 214.146 180.512 214.054 180.226 214.079C180.058 214.096 179.856 214.155 179.772 214.28C179.302 215.001 178.344 215.203 177.622 214.742C176.899 214.28 176.697 213.316 177.159 212.595C177.756 211.673 178.781 211.086 179.966 210.985C181.234 210.885 182.469 211.346 183.276 212.226C184.67 213.761 184.729 216.276 183.402 218.079C182.318 219.546 180.411 220.426 178.394 220.41L178.411 220.393Z" fill="black"/>
<path d="M129.179 197.746C128.877 197.746 128.574 197.654 128.306 197.478C127.6 196.991 127.415 196.027 127.902 195.323C129.053 193.646 131.112 191.231 134.405 189.252C137.665 187.316 140.79 186.637 142.848 186.41C143.714 186.31 144.47 186.93 144.562 187.777C144.655 188.632 144.041 189.395 143.193 189.487C141.445 189.68 138.774 190.259 136.001 191.91C133.195 193.587 131.448 195.642 130.473 197.067C130.171 197.503 129.683 197.746 129.188 197.746H129.179Z" fill="black"/>
<path d="M185.359 197.746C184.863 197.746 184.376 197.512 184.074 197.067C183.099 195.642 181.343 193.588 178.537 191.911C175.765 190.267 173.101 189.689 171.346 189.496C170.489 189.404 169.875 188.632 169.976 187.786C170.069 186.939 170.825 186.318 171.69 186.419C173.748 186.645 176.874 187.324 180.125 189.261C183.418 191.232 185.485 193.655 186.636 195.332C187.123 196.036 186.939 197.009 186.233 197.487C185.964 197.671 185.662 197.755 185.359 197.755V197.746Z" fill="black"/>
<path d="M151.329 235.844C151.825 235.844 152.362 235.894 152.942 235.953C154.143 236.07 155.782 236.23 158.126 236.213C159.991 236.205 161.293 236.087 162.234 235.995C163.771 235.852 165.107 235.735 165.788 237.043C166.443 238.292 165.729 239.827 165.015 240.9C163.318 243.449 159.999 245.872 156.437 245.57C153.186 245.285 150.506 242.845 149.287 240.556C148.54 239.148 148.422 237.923 148.935 237.001C149.464 236.079 150.287 235.844 151.321 235.844L151.329 235.844ZM157.731 239.315C155.446 239.315 153.774 239.156 152.64 239.039C152.421 239.013 152.186 238.997 151.976 238.971C152.598 240.196 154.404 242.267 156.714 242.468C158.521 242.619 160.1 241.546 160.881 240.883C161.629 240.254 162.158 239.592 162.494 239.072C161.545 239.156 160.125 239.29 158.142 239.298C158 239.298 157.865 239.298 157.731 239.298L157.731 239.315Z" fill="black"/>
</g>
</g>
<defs>
<clipPath id="clip0_1247_674">
<rect width="400" height="400" fill="white"/>
</clipPath>
<clipPath id="clip1_1247_674">
<rect width="400" height="400" fill="white"/>
</clipPath>
</defs>
</svg>
